<svg width="384" height="68" viewBox="0 0 384 68" fill="none" xmlns="http://www.w3.org/2000/svg">
<path d="M0 24H54L72 44H0V24Z" fill="#E9CD5A"/>
<path d="M4.43459e-05 44H72V68H0L4.43459e-05 44Z" fill="white"/>
<path d="M0 0H60L48 24H0V0Z" fill="#FC556F"/>
<path d="M71.8607 20.7688C71.6328 18.3964 70.6186 16.5525 68.8182 15.2369C67.0405 13.8998 64.4994 13.2312 61.1947 13.2312C59.0068 13.2312 57.1836 13.5008 55.725 14.04C54.2664 14.5791 53.1725 15.3232 52.4432 16.2721C51.7139 17.1995 51.3378 18.267 51.315 19.4748C51.2694 20.4669 51.4746 21.3403 51.9304 22.0951C52.409 22.85 53.0927 23.5186 53.9815 24.1009C54.8931 24.6616 55.9871 25.1576 57.2634 25.589C58.5396 26.0203 59.9754 26.3977 61.5708 26.7212L67.5875 28.0152C71.0517 28.7269 74.1056 29.6759 76.7493 30.862C79.4158 32.0482 81.6493 33.4608 83.4497 35.0999C85.273 36.739 86.6518 38.6261 87.5862 40.7612C88.5207 42.8963 88.9993 45.2902 89.022 47.9429C88.9993 52.1269 89.022 59.2327 89.022 59.2327V68C82 68 67.0291 68 61.1947 68C55.3376 68 50.2325 67.1697 45.8795 65.509C41.5265 63.8484 38.1421 61.3251 35.7263 57.9391C33.3105 54.5531 32.0684 50.2721 32 45.0961H48.2041C48.3408 47.2312 48.9448 49.0105 50.016 50.4339C51.0871 51.8573 52.5571 52.9356 54.4259 53.6689C56.3176 54.4022 58.5055 54.7688 60.9896 54.7688C63.2687 54.7688 65.2059 54.4776 66.8012 53.8953C68.4194 53.313 69.6614 52.5043 70.5275 51.4691C71.3935 50.4339 71.8379 49.2477 71.8607 47.9106C71.8379 46.6597 71.4277 45.5921 70.63 44.7079C69.8324 43.8021 68.6017 43.0257 66.938 42.3787C65.297 41.7101 63.2003 41.0955 60.6478 40.5347L53.332 38.9172C47.2697 37.6016 42.4951 35.4773 39.0081 32.5442C35.5211 29.5896 33.7891 25.5997 33.8119 20.5747C33.7891 16.477 34.9514 12.8861 37.2988 9.80209C39.6462 6.71805 42.8939 4.31335 47.0418 2.58801C51.1897 0.862671 55.9187 0 61.2289 0C66.6531 0 71.3593 0.873453 75.3477 2.62036C79.3588 4.3457 82.4697 6.77197 84.6804 9.89915C86.8911 13.0263 88.0193 16.6495 88.0648 20.7688H71.8607Z" fill="white"/>
<path d="M107.752 0.905804V68H91.0552L90.8298 0.905804H107.752Z" fill="white"/>
<path d="M111.636 0.905804H132.592L150.369 41.9258H151.189L168.966 0.905804H189.922V68H173.444V26.4624H172.863L156.044 68H145.515L128.695 26.236H128.114V68H111.636V0.905804Z" fill="white"/>
<path d="M253.324 0.905804V68H239.191L211.105 28.921H210.66L210.435 68H193.964L193.738 0.905804H208.301L235.855 39.079H236.436V0.905804H253.324Z" fill="white"/>
<path d="M272.37 68H254.183L277.806 0.905804H300.334L324.182 68H305.77L289.326 17.5985H288.779L272.37 68Z" fill="white"/>
<path d="M367.112 0.905804H384V43.6403C384 48.5791 382.758 52.8817 380.274 56.548C377.79 60.1928 374.325 63.0181 369.881 65.0238C365.437 67.0079 360.275 68 354.395 68C348.447 68 343.25 67.0079 338.806 65.0238C334.362 63.0181 330.909 60.1928 328.448 56.548C325.987 52.8817 324.756 48.5791 324.756 43.6403V0.905804H341.678V42.2493C341.678 44.5354 342.202 46.5734 343.25 48.3635C344.322 50.1535 345.814 51.5553 347.729 52.569C349.643 53.5826 351.865 54.0894 354.395 54.0894C356.925 54.0894 359.135 53.5826 361.027 52.569C362.942 51.5553 364.434 50.1535 365.505 48.3635C366.577 46.5734 367.112 44.5354 367.112 42.2493V0.905804Z" fill="white"/>
</svg>
