<svg width="96" height="17" viewBox="0 0 96 17" fill="none" xmlns="http://www.w3.org/2000/svg">
<path d="M0 6H13.5L18 11H0V6Z" fill="#E9CD5A"/>
<path d="M1.10865e-05 11H18V17H0L1.10865e-05 11Z" fill="black"/>
<path d="M0 0H15L12 6H0V0Z" fill="#FC556F"/>
<path d="M17.9652 5.1922C17.9082 4.59911 17.6547 4.13812 17.2045 3.80923C16.7601 3.47495 16.1248 3.3078 15.2987 3.3078C14.7517 3.3078 14.2959 3.3752 13.9312 3.50999C13.5666 3.64478 13.2931 3.8308 13.1108 4.06803C12.9285 4.29987 12.8345 4.56676 12.8288 4.8687C12.8174 5.11671 12.8686 5.33508 12.9826 5.52379C13.1022 5.7125 13.2732 5.87964 13.4954 6.02521C13.7233 6.1654 13.9968 6.28941 14.3158 6.39724C14.6349 6.50508 14.9939 6.59943 15.3927 6.6803L16.8969 7.00381C17.7629 7.18173 18.5264 7.41897 19.1873 7.71551C19.854 8.01205 20.4123 8.36521 20.8624 8.77498C21.3182 9.18475 21.663 9.65652 21.8966 10.1903C22.1302 10.7241 22.2498 11.3225 22.2555 11.9857C22.2498 13.0317 22.2555 14.8082 22.2555 14.8082V17C20.5 17 16.7573 17 15.2987 17C13.8344 17 12.5581 16.7924 11.4699 16.3773C10.3816 15.9621 9.53552 15.3313 8.93157 14.4848C8.32761 13.6383 8.01709 12.568 8 11.274H12.051C12.0852 11.8078 12.2362 12.2526 12.504 12.6085C12.7718 12.9643 13.1393 13.2339 13.6065 13.4172C14.0794 13.6005 14.6264 13.6922 15.2474 13.6922C15.8172 13.6922 16.3015 13.6194 16.7003 13.4738C17.1048 13.3283 17.4154 13.1261 17.6319 12.8673C17.8484 12.6085 17.9595 12.3119 17.9652 11.9776C17.9595 11.6649 17.8569 11.398 17.6575 11.177C17.4581 10.9505 17.1504 10.7564 16.7345 10.5947C16.3243 10.4275 15.8001 10.2739 15.1619 10.1337L13.333 9.72931C11.8174 9.40041 10.6238 8.86933 9.75203 8.13606C8.88029 7.3974 8.44727 6.39994 8.45296 5.14367C8.44727 4.11925 8.73785 3.22154 9.3247 2.45052C9.91156 1.67951 10.7235 1.07834 11.7604 0.647004C12.7974 0.215668 13.9797 0 15.3072 0C16.6633 0 17.8398 0.218363 18.8369 0.65509C19.8397 1.08643 20.6174 1.69299 21.1701 2.47479C21.7228 3.25658 22.0048 4.16238 22.0162 5.1922H17.9652Z" fill="black"/>
<path d="M26.938 0.226451V16.7897H22.7074V0.226451H26.938Z" fill="black"/>
<path d="M27.9091 0.226451H33.1481L37.5922 10.4814H37.7973L42.2415 0.226451H47.4805V16.7897H43.3611V6.6156H43.2158L39.0109 16.6846H36.3786L32.1738 6.55899H32.0285V16.7897H27.9091V0.226451Z" fill="black"/>
<path d="M63.331 0.226451V16.7897H59.7415L52.7761 7.23026H52.665V16.7897H48.4345V0.226451H52.0753L58.9638 9.76974H59.1091V0.226451H63.331Z" fill="black"/>
<path d="M68.0925 16.7897H63.5458L69.4514 0.226451H75.0835L80.9892 16.7897H76.4424L72.3316 4.39962H72.1948L68.0925 16.7897Z" fill="black"/>
<path d="M91.778 0.226451H96V10.9101C96 12.1448 95.6895 13.2204 95.0684 14.137C94.4474 15.0482 93.5813 15.7545 92.4703 16.2559C91.3593 16.752 90.0687 17 88.5988 17C87.1117 17 85.8126 16.752 84.7016 16.2559C83.5905 15.7545 82.7273 15.0482 82.112 14.137C81.4966 13.2204 81.189 12.1448 81.189 10.9101V0.226451H85.4195V10.5623C85.4195 11.1338 85.5505 11.6434 85.8126 12.0909C86.0804 12.5384 86.4536 12.8888 86.9322 13.1422C87.4108 13.3957 87.9663 13.5224 88.5988 13.5224C89.2312 13.5224 89.7839 13.3957 90.2568 13.1422C90.7354 12.8888 91.1086 12.5384 91.3764 12.0909C91.6441 11.6434 91.778 11.1338 91.778 10.5623V0.226451Z" fill="black"/>
</svg>
